<mxfile host="app.diagrams.net" agent="Mozilla/5.0 (Windows NT 10.0; Win64; x64) AppleWebKit/537.36 (KHTML, like Gecko) Chrome/136.0.0.0 Safari/537.36" version="27.0.9">
  <diagram name="Page-1" id="J17UvHlPBWsVTI5AADHf">
    <mxGraphModel dx="1884" dy="777" grid="1" gridSize="10" guides="1" tooltips="1" connect="1" arrows="1" fold="1" page="1" pageScale="1" pageWidth="827" pageHeight="1169" math="0" shadow="0">
      <root>
        <mxCell id="0" />
        <mxCell id="1" parent="0" />
        <mxCell id="sNEYVlfaempWSjiyBMF0-9" style="edgeStyle=orthogonalEdgeStyle;rounded=0;orthogonalLoop=1;jettySize=auto;html=1;" edge="1" parent="1" source="AJ2iKXxZ578vceLpGuxF-1" target="sNEYVlfaempWSjiyBMF0-2">
          <mxGeometry relative="1" as="geometry" />
        </mxCell>
        <mxCell id="AJ2iKXxZ578vceLpGuxF-1" value="Users" style="html=1;whiteSpace=wrap;" parent="1" vertex="1">
          <mxGeometry x="70" y="60" width="110" height="50" as="geometry" />
        </mxCell>
        <mxCell id="sNEYVlfaempWSjiyBMF0-1" value="" style="sketch=0;outlineConnect=0;fontColor=#232F3E;gradientColor=none;fillColor=#232F3D;strokeColor=none;dashed=0;verticalLabelPosition=bottom;verticalAlign=top;align=center;html=1;fontSize=12;fontStyle=0;aspect=fixed;pointerEvents=1;shape=mxgraph.aws4.users;" vertex="1" parent="1">
          <mxGeometry x="105" y="30" width="40" height="40" as="geometry" />
        </mxCell>
        <mxCell id="sNEYVlfaempWSjiyBMF0-10" style="edgeStyle=orthogonalEdgeStyle;rounded=0;orthogonalLoop=1;jettySize=auto;html=1;" edge="1" parent="1" source="sNEYVlfaempWSjiyBMF0-2" target="sNEYVlfaempWSjiyBMF0-8">
          <mxGeometry relative="1" as="geometry" />
        </mxCell>
        <mxCell id="sNEYVlfaempWSjiyBMF0-2" value="Frontend code&lt;span style=&quot;white-space: pre;&quot;&gt;&#x9;&lt;/span&gt;" style="rounded=0;whiteSpace=wrap;html=1;" vertex="1" parent="1">
          <mxGeometry x="240" y="50" width="120" height="60" as="geometry" />
        </mxCell>
        <mxCell id="sNEYVlfaempWSjiyBMF0-11" style="edgeStyle=orthogonalEdgeStyle;rounded=0;orthogonalLoop=1;jettySize=auto;html=1;entryX=0.5;entryY=0;entryDx=0;entryDy=0;" edge="1" parent="1" source="sNEYVlfaempWSjiyBMF0-3" target="sNEYVlfaempWSjiyBMF0-6">
          <mxGeometry relative="1" as="geometry" />
        </mxCell>
        <mxCell id="sNEYVlfaempWSjiyBMF0-3" value="Admin" style="rounded=0;whiteSpace=wrap;html=1;" vertex="1" parent="1">
          <mxGeometry x="240" y="160" width="120" height="60" as="geometry" />
        </mxCell>
        <mxCell id="sNEYVlfaempWSjiyBMF0-18" value="" style="edgeStyle=orthogonalEdgeStyle;rounded=0;orthogonalLoop=1;jettySize=auto;html=1;" edge="1" parent="1" source="sNEYVlfaempWSjiyBMF0-4" target="sNEYVlfaempWSjiyBMF0-5">
          <mxGeometry relative="1" as="geometry" />
        </mxCell>
        <mxCell id="sNEYVlfaempWSjiyBMF0-4" value="Inventory Management&lt;br&gt;(PUB/SUB)" style="rounded=0;whiteSpace=wrap;html=1;" vertex="1" parent="1">
          <mxGeometry x="241" y="280" width="120" height="50" as="geometry" />
        </mxCell>
        <mxCell id="sNEYVlfaempWSjiyBMF0-20" value="" style="edgeStyle=orthogonalEdgeStyle;rounded=0;orthogonalLoop=1;jettySize=auto;html=1;" edge="1" parent="1" source="sNEYVlfaempWSjiyBMF0-5">
          <mxGeometry relative="1" as="geometry">
            <mxPoint x="300" y="500" as="targetPoint" />
          </mxGeometry>
        </mxCell>
        <mxCell id="sNEYVlfaempWSjiyBMF0-5" value="Cloud Build" style="rounded=0;whiteSpace=wrap;html=1;" vertex="1" parent="1">
          <mxGeometry x="240" y="400" width="120" height="60" as="geometry" />
        </mxCell>
        <mxCell id="sNEYVlfaempWSjiyBMF0-13" style="edgeStyle=orthogonalEdgeStyle;rounded=0;orthogonalLoop=1;jettySize=auto;html=1;exitX=1;exitY=0.5;exitDx=0;exitDy=0;" edge="1" parent="1" source="sNEYVlfaempWSjiyBMF0-6" target="sNEYVlfaempWSjiyBMF0-4">
          <mxGeometry relative="1" as="geometry" />
        </mxCell>
        <mxCell id="sNEYVlfaempWSjiyBMF0-6" value="API Gateway" style="whiteSpace=wrap;html=1;aspect=fixed;" vertex="1" parent="1">
          <mxGeometry x="70" y="230" width="80" height="80" as="geometry" />
        </mxCell>
        <mxCell id="sNEYVlfaempWSjiyBMF0-12" value="" style="edgeStyle=orthogonalEdgeStyle;rounded=0;orthogonalLoop=1;jettySize=auto;html=1;" edge="1" parent="1" source="sNEYVlfaempWSjiyBMF0-7" target="sNEYVlfaempWSjiyBMF0-6">
          <mxGeometry relative="1" as="geometry" />
        </mxCell>
        <mxCell id="sNEYVlfaempWSjiyBMF0-7" value="GITHub" style="whiteSpace=wrap;html=1;aspect=fixed;" vertex="1" parent="1">
          <mxGeometry x="70" y="380" width="80" height="80" as="geometry" />
        </mxCell>
        <mxCell id="sNEYVlfaempWSjiyBMF0-8" value="Security&lt;div&gt;&lt;br&gt;IAM&lt;/div&gt;" style="whiteSpace=wrap;html=1;aspect=fixed;" vertex="1" parent="1">
          <mxGeometry x="511" y="40" width="110" height="110" as="geometry" />
        </mxCell>
        <mxCell id="sNEYVlfaempWSjiyBMF0-14" value="" style="dashed=0;outlineConnect=0;html=1;align=center;labelPosition=center;verticalLabelPosition=bottom;verticalAlign=top;shape=mxgraph.weblogos.github" vertex="1" parent="1">
          <mxGeometry x="60" y="440" width="75" height="75" as="geometry" />
        </mxCell>
        <mxCell id="sNEYVlfaempWSjiyBMF0-16" value="Monitoring setup" style="whiteSpace=wrap;html=1;aspect=fixed;" vertex="1" parent="1">
          <mxGeometry x="820" y="330" width="80" height="80" as="geometry" />
        </mxCell>
        <mxCell id="sNEYVlfaempWSjiyBMF0-17" value="Date lake" style="whiteSpace=wrap;html=1;aspect=fixed;" vertex="1" parent="1">
          <mxGeometry x="660" y="330" width="80" height="80" as="geometry" />
        </mxCell>
        <mxCell id="sNEYVlfaempWSjiyBMF0-21" value="" style="sketch=0;outlineConnect=0;fontColor=#232F3E;gradientColor=none;fillColor=#DD344C;strokeColor=none;dashed=0;verticalLabelPosition=bottom;verticalAlign=top;align=center;html=1;fontSize=12;fontStyle=0;aspect=fixed;pointerEvents=1;shape=mxgraph.aws4.addon;" vertex="1" parent="1">
          <mxGeometry x="530" y="20" width="78" height="40" as="geometry" />
        </mxCell>
      </root>
    </mxGraphModel>
  </diagram>
</mxfile>
